<svg width="18" height="12" viewBox="0 0 18 12" fill="none" xmlns="http://www.w3.org/2000/svg">
<path fill-rule="evenodd" clip-rule="evenodd" d="M8.7898 8.54248C10.3624 8.54248 11.6372 7.26765 11.6372 5.69507C11.6372 4.12248 10.3624 2.84766 8.7898 2.84766C7.21722 2.84766 5.94238 4.12248 5.94238 5.69507C5.94238 7.26765 7.21722 8.54248 8.7898 8.54248ZM8.7898 6.91083C8.11838 6.91083 7.57404 6.36649 7.57404 5.69507C7.57404 5.02365 8.11838 4.4793 8.7898 4.4793C9.46122 4.4793 10.0056 5.02365 10.0056 5.69507C10.0056 6.36649 9.46122 6.91083 8.7898 6.91083Z" fill="#885ABB"/>
<path fill-rule="evenodd" clip-rule="evenodd" d="M8.79414 0C4.87999 0 2.218 2.12258 0.812676 3.64451C-0.270893 4.81798 -0.270892 6.57166 0.812676 7.74512C2.218 9.26711 4.87999 11.3896 8.79414 11.3896C12.7083 11.3896 15.3703 9.26711 16.7756 7.74512C17.8592 6.57166 17.8592 4.81798 16.7756 3.64451C15.3703 2.12258 12.7083 0 8.79414 0ZM2.00809 4.74834C3.25252 3.40064 5.51302 1.62709 8.79414 1.62709C12.0752 1.62709 14.3358 3.40064 15.5802 4.74834C16.0881 5.29846 16.0881 6.09118 15.5802 6.6413C14.3358 7.98902 12.0752 9.76256 8.79414 9.76256C5.51302 9.76256 3.25252 7.98902 2.00809 6.6413C1.50009 6.09118 1.50009 5.29846 2.00809 4.74834Z" fill="#885ABB"/>
</svg>
