<svg width="149" height="14" viewBox="0 0 149 14" fill="none" xmlns="http://www.w3.org/2000/svg">
<path d="M10.3207 0.636363V13H8.8718L2.13459 3.29261H2.01385V13H0.51669V0.636363H1.96555L8.72692 10.3679H8.84766V0.636363H10.3207ZM16.6837 0.636363V13H15.1865V0.636363H16.6837ZM31.5044 4.5H30.0072C29.9187 4.06937 29.7637 3.69105 29.5424 3.36506C29.325 3.03906 29.0594 2.76539 28.7455 2.54403C28.4356 2.31866 28.0915 2.14962 27.7132 2.03693C27.3349 1.92424 26.9405 1.8679 26.53 1.8679C25.7814 1.8679 25.1032 2.05705 24.4955 2.43537C23.8918 2.81368 23.4109 3.37109 23.0527 4.1076C22.6985 4.84411 22.5214 5.74763 22.5214 6.81818C22.5214 7.88873 22.6985 8.79226 23.0527 9.52876C23.4109 10.2653 23.8918 10.8227 24.4955 11.201C25.1032 11.5793 25.7814 11.7685 26.53 11.7685C26.9405 11.7685 27.3349 11.7121 27.7132 11.5994C28.0915 11.4867 28.4356 11.3197 28.7455 11.0984C29.0594 10.873 29.325 10.5973 29.5424 10.2713C29.7637 9.94129 29.9187 9.56297 30.0072 9.13636H31.5044C31.3917 9.76823 31.1864 10.3337 30.8886 10.8327C30.5908 11.3318 30.2205 11.7564 29.7778 12.1065C29.3351 12.4527 28.8381 12.7163 28.2867 12.8974C27.7393 13.0785 27.1538 13.169 26.53 13.169C25.4755 13.169 24.5378 12.9115 23.7167 12.3963C22.8957 11.8812 22.2498 11.1487 21.7789 10.1989C21.308 9.24905 21.0726 8.12216 21.0726 6.81818C21.0726 5.5142 21.308 4.38731 21.7789 3.4375C22.2498 2.48769 22.8957 1.75521 23.7167 1.24006C24.5378 0.724905 25.4755 0.467329 26.53 0.467329C27.1538 0.467329 27.7393 0.557883 28.2867 0.738991C28.8381 0.920099 29.3351 1.18572 29.7778 1.53587C30.2205 1.88198 30.5908 2.30457 30.8886 2.80362C31.1864 3.29865 31.3917 3.86411 31.5044 4.5ZM46.2255 6.81818C46.2255 8.12216 45.9901 9.24905 45.5192 10.1989C45.0483 11.1487 44.4023 11.8812 43.5813 12.3963C42.7603 12.9115 41.8226 13.169 40.7681 13.169C39.7137 13.169 38.7759 12.9115 37.9549 12.3963C37.1339 11.8812 36.4879 11.1487 36.017 10.1989C35.5462 9.24905 35.3107 8.12216 35.3107 6.81818C35.3107 5.5142 35.5462 4.38731 36.017 3.4375C36.4879 2.48769 37.1339 1.75521 37.9549 1.24006C38.7759 0.724905 39.7137 0.467329 40.7681 0.467329C41.8226 0.467329 42.7603 0.724905 43.5813 1.24006C44.4023 1.75521 45.0483 2.48769 45.5192 3.4375C45.9901 4.38731 46.2255 5.5142 46.2255 6.81818ZM44.7766 6.81818C44.7766 5.74763 44.5975 4.84411 44.2394 4.1076C43.8852 3.37109 43.4042 2.81368 42.7965 2.43537C42.1928 2.05705 41.5167 1.8679 40.7681 1.8679C40.0195 1.8679 39.3414 2.05705 38.7337 2.43537C38.13 2.81368 37.649 3.37109 37.2908 4.1076C36.9367 4.84411 36.7596 5.74763 36.7596 6.81818C36.7596 7.88873 36.9367 8.79226 37.2908 9.52876C37.649 10.2653 38.13 10.8227 38.7337 11.201C39.3414 11.5793 40.0195 11.7685 40.7681 11.7685C41.5167 11.7685 42.1928 11.5793 42.7965 11.201C43.4042 10.8227 43.8852 10.2653 44.2394 9.52876C44.5975 8.79226 44.7766 7.88873 44.7766 6.81818ZM50.6129 13V0.636363H52.1101V11.6719H57.8572V13H50.6129ZM63.3328 13H61.7632L66.3029 0.636363H67.8484L72.3882 13H70.8186L67.124 2.59233H67.0274L63.3328 13ZM63.9123 8.17045H70.239V9.49858H63.9123V8.17045ZM89.5966 3.72727C89.5241 3.11553 89.2303 2.64062 88.7152 2.30256C88.2 1.96449 87.5682 1.79545 86.8196 1.79545C86.2722 1.79545 85.7933 1.884 85.3828 2.06108C84.9763 2.23816 84.6584 2.48165 84.429 2.79155C84.2036 3.10144 84.0909 3.4536 84.0909 3.84801C84.0909 4.17803 84.1694 4.46177 84.3263 4.69922C84.4873 4.93265 84.6926 5.12784 84.9421 5.2848C85.1916 5.43774 85.4532 5.56451 85.7269 5.66513C86.0006 5.76172 86.2521 5.8402 86.4815 5.90057L87.7372 6.23864C88.0592 6.32315 88.4174 6.43987 88.8118 6.58878C89.2102 6.73769 89.5905 6.94093 89.9527 7.19851C90.319 7.45206 90.6208 7.77805 90.8583 8.17649C91.0957 8.57493 91.2145 9.06392 91.2145 9.64347C91.2145 10.3116 91.0394 10.9152 90.6893 11.4545C90.3431 11.9938 89.836 12.4225 89.1679 12.7404C88.5039 13.0584 87.6969 13.2173 86.7471 13.2173C85.8617 13.2173 85.095 13.0745 84.4471 12.7887C83.8031 12.503 83.296 12.1045 82.9258 11.5934C82.5595 11.0823 82.3522 10.4886 82.304 9.8125H83.8494C83.8897 10.2794 84.0466 10.6657 84.3203 10.9716C84.598 11.2734 84.9481 11.4988 85.3707 11.6477C85.7973 11.7926 86.2561 11.8651 86.7471 11.8651C87.3186 11.8651 87.8318 11.7725 88.2866 11.5874C88.7413 11.3982 89.1015 11.1366 89.3672 10.8026C89.6328 10.4645 89.7656 10.0701 89.7656 9.61932C89.7656 9.20881 89.6509 8.87476 89.4215 8.61719C89.1921 8.35961 88.8902 8.15033 88.516 7.98935C88.1417 7.82836 87.7372 7.6875 87.3025 7.56676L85.7812 7.1321C84.8153 6.8544 84.0506 6.45798 83.4872 5.94283C82.9237 5.42767 82.642 4.75355 82.642 3.92045C82.642 3.22822 82.8292 2.62453 83.2035 2.10938C83.5818 1.5902 84.0889 1.18774 84.7248 0.901988C85.3647 0.612215 86.079 0.467329 86.8679 0.467329C87.6647 0.467329 88.3731 0.610203 88.9929 0.895951C89.6127 1.17767 90.1037 1.56404 90.4659 2.05504C90.8321 2.54605 91.0253 3.10346 91.0454 3.72727H89.5966ZM95.546 0.636363H97.333L101.535 10.8991H101.68L105.881 0.636363H107.668V13H106.268V3.60653H106.147L102.283 13H100.931L97.0673 3.60653H96.9466V13H95.546V0.636363ZM111.478 0.636363H113.192L116.621 6.40767H116.766L120.195 0.636363H121.909L117.442 7.90483V13H115.945V7.90483L111.478 0.636363ZM125.82 1.96449V0.636363H135.093V1.96449H131.205V13H129.708V1.96449H125.82ZM139.273 13V0.636363H140.77V6.14205H147.363V0.636363H148.86V13H147.363V7.47017H140.77V13H139.273Z" fill="black" stroke-width="1.3" stroke="black"/>
</svg>
