<svg width="85" height="26" viewBox="0 0 85 26" fill="none" xmlns="http://www.w3.org/2000/svg">
<mask id="mask0_1063_985" style="mask-type:alpha" maskUnits="userSpaceOnUse" x="0" y="0" width="85" height="26">
<rect x="0.78418" y="0.271484" width="84.0513" height="25.728" fill="white"/>
</mask>
<g mask="url(#mask0_1063_985)">
<path d="M15.1702 4.88442H11.9234C11.623 4.88442 11.3795 5.12804 11.3795 5.4283C11.3795 5.88799 10.8418 6.14412 10.4905 5.84762C9.65184 5.13946 8.47194 4.68164 7.01978 4.68164C3.5472 4.68164 0.78418 7.47001 0.78418 11.9311C0.78418 16.3923 3.5472 19.2313 7.01978 19.2313C8.47726 19.2313 9.64808 18.7452 10.4885 18.0266C10.8388 17.7271 11.3795 17.9835 11.3795 18.4443V19.0032C11.3795 21.3859 10.0868 22.2477 8.43924 22.2477C7.10083 22.2477 6.10759 21.6996 5.71377 20.8213C5.62599 20.6256 5.43276 20.4987 5.21809 20.4987H1.95673C1.61157 20.4987 1.35074 20.8171 1.42334 21.1544C2.06719 24.1437 4.71396 25.9992 8.64201 25.9992C13.5342 25.9992 15.7141 22.78 15.7141 19.0032V5.4283C15.7141 5.12804 15.4706 4.88442 15.1702 4.88442ZM8.28715 15.4544C6.66492 15.4544 5.19477 14.187 5.19477 11.9311C5.19477 9.67507 6.66492 8.45855 8.28715 8.45855C9.93473 8.45855 11.3795 9.70057 11.3795 11.9566C11.3795 14.2126 9.93473 15.4544 8.28715 15.4544Z" fill="white"/>
<path d="M22.6471 0.271484H19.4003C19.0999 0.271484 18.8564 0.514944 18.8564 0.815357V18.485C18.8564 18.7854 19.0999 19.0288 19.4003 19.0288H22.6471C22.9475 19.0288 23.191 18.7854 23.191 18.485V0.815357C23.191 0.514944 22.9475 0.271484 22.6471 0.271484Z" fill="white"/>
<path d="M32.8231 4.68164C28.6914 4.68164 25.4722 7.46985 25.4722 11.9565C25.4722 16.443 28.6154 19.2312 32.7724 19.2312C36.9295 19.2312 40.174 16.443 40.174 11.9565C40.174 7.46985 36.9802 4.68164 32.8231 4.68164ZM33.6869 16.1094C33.427 16.3693 33.0055 16.3693 32.7456 16.1094L28.67 12.0339C28.4101 11.7739 28.4101 11.3525 28.67 11.0926C28.9301 10.8326 29.3514 10.8326 29.6113 11.0926L33.6869 15.1681C33.9468 15.428 33.9468 15.8495 33.6869 16.1094ZM36.592 15.7253C36.3321 15.9851 35.9106 15.9851 35.6507 15.7253L29.0541 9.12869C28.7942 8.8688 28.7942 8.44729 29.0541 8.1874C29.314 7.92751 29.7355 7.92751 29.9954 8.1874L36.592 14.784C36.8519 15.0439 36.8519 15.4654 36.592 15.7253ZM36.9761 12.8202C36.7162 13.0801 36.2947 13.0801 36.0348 12.8202L31.9594 8.74457C31.6993 8.48468 31.6993 8.06332 31.9594 7.80343C32.2193 7.54339 32.6406 7.54339 32.9007 7.80343L36.9761 11.8789C37.236 12.1388 37.236 12.5603 36.9761 12.8202Z" fill="white"/>
<path d="M46.2314 8.99069C46.2314 8.30631 46.789 7.90075 47.8029 7.90075C48.8511 7.90075 49.5419 8.37109 49.7941 9.11727C49.8701 9.34195 50.0748 9.49763 50.312 9.49763H53.252C53.5966 9.49763 53.8567 9.18017 53.7858 8.84283C53.2723 6.39759 51.2874 4.68164 47.9296 4.68164C44.2289 4.68164 42.1758 6.65873 42.1758 9.06673C42.1758 14.2631 49.8816 12.6155 49.8816 14.8968C49.8816 15.5305 49.2986 16.0374 48.1831 16.0374C47.1426 16.0374 46.3342 15.5347 46.0785 14.7488C46.0078 14.531 45.7963 14.3898 45.5672 14.3898H42.3475C42.0049 14.3898 41.7405 14.7043 41.8134 15.039C42.3393 17.4531 44.7617 19.2312 48.2338 19.2312C51.7826 19.2312 53.9625 17.3808 53.9625 14.9221C53.8864 9.64972 46.2314 11.2468 46.2314 8.99069Z" fill="white"/>
<path d="M60.3749 8.99069C60.3749 8.30631 60.9326 7.90075 61.9465 7.90075C62.9946 7.90075 63.6854 8.37109 63.9376 9.11727C64.0137 9.34195 64.2184 9.49763 64.4556 9.49763H67.3955C67.7402 9.49763 68.0003 9.18017 67.9294 8.84283C67.4159 6.39759 65.431 4.68164 62.0732 4.68164C58.3725 4.68164 56.3194 6.65873 56.3194 9.06673C56.3194 14.2631 64.0251 12.6155 64.0251 14.8968C64.0251 15.5305 63.4421 16.0374 62.3267 16.0374C61.2862 16.0374 60.4777 15.5347 60.2221 14.7488C60.1514 14.531 59.9398 14.3898 59.7107 14.3898H56.491C56.1485 14.3898 55.8841 14.7043 55.957 15.039C56.4829 17.4531 58.9053 19.2312 62.3774 19.2312C65.9262 19.2312 68.1061 17.3808 68.1061 14.9221C68.03 9.64972 60.3749 11.2468 60.3749 8.99069Z" fill="white"/>
<path d="M84.2918 4.88442H81.045C80.7446 4.88442 80.5011 5.12804 80.5011 5.4283V5.43549C80.5011 5.89597 79.9624 6.15116 79.611 5.85372C78.7786 5.14963 77.6078 4.68164 76.1414 4.68164C72.6688 4.68164 69.9058 7.47001 69.9058 11.9311C69.9058 16.3923 72.6688 19.2313 76.116 19.2313C77.5932 19.2313 78.7704 18.7565 79.6127 18.0436C79.9632 17.7471 80.5011 18.0045 80.5011 18.4637V18.4847C80.5011 18.7851 80.7446 19.0285 81.045 19.0285H84.2918C84.5922 19.0285 84.8357 18.7851 84.8357 18.4847V5.4283C84.8357 5.12804 84.5922 4.88442 84.2918 4.88442ZM77.4088 15.4544C75.7865 15.4544 74.3164 14.187 74.3164 11.9311C74.3164 9.67507 75.7865 8.45855 77.4088 8.45855C79.0563 8.45855 80.5011 9.70057 80.5011 11.9566C80.5011 14.2126 79.0563 15.4544 77.4088 15.4544Z" fill="white"/>
</g>
</svg>
