<svg width="12" height="10" viewBox="0 0 12 10" fill="none" xmlns="http://www.w3.org/2000/svg">
<path d="M3.03924 8.69186C3.94467 8.69186 4.55045 9.03036 4.81774 9.22128C4.91612 9.27567 5.19441 9.43939 5.2546 9.44458V1.19537C4.89994 0.535217 3.8573 0 2.77713 0C1.41348 0 0.25629 0.785675 0 1.31509V9.01938C0 9.37921 0.212928 9.51578 0.469219 9.51578C0.676969 9.51578 0.812881 9.44458 0.944262 9.33585C1.26592 9.04654 2.02444 8.69186 3.03924 8.69186ZM8.12428 8.69186C9.13908 8.69186 9.89242 9.04654 10.2193 9.33585C10.3448 9.43939 10.4814 9.51578 10.6885 9.51578C10.9448 9.51578 11.1577 9.37921 11.1577 9.01938V1.31509C10.9014 0.785675 9.75004 0 8.38639 0C7.30557 0 6.26358 0.535217 5.90892 1.19537V9.45557C5.96911 9.45041 6.2474 9.28082 6.35096 9.22128C6.61307 9.03036 7.21885 8.69186 8.12428 8.69186Z" fill="#885ABB"/>
</svg>
