<svg width="15" height="15" viewBox="0 0 15 15" fill="none" xmlns="http://www.w3.org/2000/svg">
<mask id="mask0_1085_678" style="mask-type:alpha" maskUnits="userSpaceOnUse" x="0" y="0" width="15" height="15">
<rect width="15" height="15" fill="white"/>
</mask>
<g mask="url(#mask0_1085_678)">
<path d="M0.125971 6.416C-0.103812 6.07121 -0.0104515 5.60542 0.334457 5.37582L7.08403 0.876104C7.33604 0.707965 7.66446 0.707965 7.91647 0.876104L14.666 5.37582C14.9411 5.55925 15.0636 5.90119 14.9676 6.21757C14.8716 6.53396 14.5797 6.75013 14.2491 6.74973L12.7492 6.74973V13.4993C12.7492 13.9135 12.4134 14.2493 11.9992 14.2493H2.99979C2.5856 14.2493 2.24984 13.9135 2.24984 13.4993V6.74973H0.749931L0.76418 6.73548C0.510575 6.74621 0.26935 6.62546 0.125971 6.416Z" fill="white"/>
</g>
</svg>
