<svg width="13" height="11" viewBox="0 0 13 11" fill="none" xmlns="http://www.w3.org/2000/svg">
<path fill-rule="evenodd" clip-rule="evenodd" d="M9.32095 4.01331L6.80205 0.241425C6.69332 0.0802612 6.50887 0 6.32507 0C6.14126 0 5.95681 0.0802612 5.84808 0.247253L3.32919 4.01331H0.575359C0.258879 4.01331 0 4.27219 0 4.58868C0 4.64044 0.00582477 4.69223 0.0232991 4.74402L1.48338 10.0743C1.61605 10.5572 2.05874 10.9138 2.5875 10.9138H10.0626C10.5914 10.9138 11.0341 10.5572 11.1726 10.0743L12.6327 4.74402L12.6501 4.58868C12.6501 4.27219 12.3913 4.01331 12.0748 4.01331H9.32095ZM4.60028 4.01331L6.32507 1.4834L8.04985 4.01331H4.60028ZM6.32507 8.61359C5.69276 8.61359 5.175 8.09583 5.175 7.46353C5.175 6.83124 5.69276 6.31348 6.32507 6.31348C6.95738 6.31348 7.47514 6.83124 7.47514 7.46353C7.47514 8.09583 6.95738 8.61359 6.32507 8.61359Z" fill="#885ABB"/>
</svg>
