<svg width="15" height="16" viewBox="0 0 15 16" fill="none" xmlns="http://www.w3.org/2000/svg">
<mask id="mask0_1085_681" style="mask-type:alpha" maskUnits="userSpaceOnUse" x="0" y="0" width="15" height="16">
<rect x="0.880859" y="0.68457" width="13.7374" height="15.05" fill="white"/>
</mask>
<g mask="url(#mask0_1085_681)">
<path d="M14.4122 10.0947L13.3132 8.99569C13.0657 8.72072 12.9202 8.36912 12.9011 7.99971V5.83608C12.9011 3.05426 11.0465 0.68457 7.74955 0.68457C4.45259 0.68457 2.59804 2.98558 2.59804 5.83608V8.24013C2.60256 8.4597 2.51545 8.67122 2.35763 8.82396L1.08692 10.0947C0.957514 10.2215 0.883456 10.3943 0.880859 10.5755V13.0482C0.880859 13.4276 1.18838 13.7351 1.56774 13.7351H5.37986C5.60348 15.0438 6.84571 15.9235 8.15444 15.6999C9.15987 15.5281 9.94746 14.7405 10.1192 13.7351H13.9314C14.3107 13.7351 14.6182 13.4276 14.6182 13.0482V10.5755C14.6157 10.3943 14.5416 10.2215 14.4122 10.0947Z" fill="white"/>
</g>
</svg>
