<svg width="13" height="13" viewBox="0 0 13 13" fill="none" xmlns="http://www.w3.org/2000/svg">
<path fill-rule="evenodd" clip-rule="evenodd" d="M11.1055 7.1062C11.1314 6.89917 11.1508 6.69208 11.1508 6.47198C11.1508 6.25195 11.1314 6.04486 11.1055 5.83777L12.4711 4.76984C12.594 4.67279 12.6264 4.49805 12.5487 4.35565L11.2543 2.11633C11.1767 1.97394 11.0019 1.92218 10.8596 1.97394L9.24803 2.62115C8.91148 2.3623 8.54905 2.14868 8.15426 1.98688L7.90833 0.27179C7.88891 0.116516 7.753 0 7.5912 0H5.00241C4.84061 0 4.7047 0.116516 4.68528 0.27179L4.43935 1.98688C4.04456 2.14868 3.68212 2.36877 3.34558 2.62115L1.73406 1.97394C1.5852 1.91571 1.41693 1.97394 1.33927 2.11633L0.0448713 4.35565C-0.0392645 4.49805 -0.000432588 4.67279 0.122535 4.76984L1.48812 5.83777C1.46224 6.04486 1.44282 6.25842 1.44282 6.47198C1.44282 6.68561 1.46224 6.89917 1.48812 7.1062L0.122535 8.17413C-0.000432588 8.27118 -0.0327925 8.44598 0.0448713 8.58838L1.33927 10.8276C1.41693 10.97 1.59167 11.0219 1.73406 10.97L3.34558 10.3229C3.68212 10.5817 4.04456 10.7953 4.43935 10.9571L4.68528 12.6722C4.7047 12.8275 4.84061 12.944 5.00241 12.944H7.5912C7.753 12.944 7.88891 12.8275 7.90833 12.6722L8.15426 10.9571C8.54905 10.7953 8.91148 10.5753 9.24803 10.3229L10.8596 10.97C11.0084 11.0283 11.1767 10.97 11.2543 10.8276L12.5487 8.58838C12.6264 8.44598 12.594 8.27118 12.4711 8.17413L11.1055 7.1062ZM6.29681 8.73724C5.04771 8.73724 4.03161 7.72113 4.03161 6.47198C4.03161 5.2229 5.04771 4.20679 6.29681 4.20679C7.5459 4.20679 8.562 5.2229 8.562 6.47198C8.562 7.72113 7.5459 8.73724 6.29681 8.73724Z" fill="#885ABB"/>
</svg>
