<svg width="30" height="26" viewBox="0 0 30 26" fill="none" xmlns="http://www.w3.org/2000/svg">
<path d="M10.1 0.400391C5.07421 0.400391 0.999999 4.4746 1 9.50039C1 14.5262 5.07421 18.6004 10.1 18.6004C15.1258 18.6004 19.2 14.5262 19.2 9.50039C19.2 4.4746 15.1258 0.400391 10.1 0.400391ZM10.1 1.80039C14.3526 1.80039 17.8 5.2478 17.8 9.50039C17.8 13.753 14.3526 17.2004 10.1 17.2004C5.84741 17.2004 2.4 13.753 2.4 9.50039C2.4 5.2478 5.84741 1.80039 10.1 1.80039ZM10.6824 4.60586L10.4062 4.625L10.1328 4.66875L9.86484 4.73164L9.60234 4.81641L9.34531 4.92031L9.09922 5.04609L8.86133 5.19102L8.63984 5.35234L8.4293 5.53008L8.23242 5.72695L8.05469 5.9375L7.89062 6.15898L7.7457 6.39687L7.62266 6.64297L7.51602 6.89727L7.43125 7.1625L7.36836 7.43047L7.32461 7.70391L7.30547 7.98008V8.25625L7.32734 8.52969L7.37383 8.80313H7.37109H5.9V10.2031H7.58437L7.57891 10.534L7.55156 10.8621L7.50234 11.1875L7.42852 11.5102L7.33555 11.8273L7.2207 12.1363L7.08672 12.4371L6.93086 12.727L6.75586 13.0059L6.56172 13.2738L7.45039 14.3184L7.74297 14.1707L8.04648 14.0422L8.35547 13.9355L8.66992 13.848L8.99258 13.7852L9.31523 13.7414L9.64062 13.7195H9.96875L10.2969 13.7414L10.6195 13.7852L10.9422 13.8508L11.2566 13.9383L11.5656 14.0449L11.8664 14.1734L12.0824 14.2609L12.3039 14.3293L12.5309 14.3758L12.7633 14.3977L12.9957 14.4004L13.2281 14.3813L13.4551 14.3375L13.6793 14.2746L13.8953 14.1898L14.1031 14.0859L14.3 13.9629L13.4988 12.8145L13.3812 12.8828L13.2555 12.9402L13.1242 12.9785L12.9902 12.9977L12.8535 13.0004L12.7168 12.9867L12.5855 12.9539L12.457 12.9047L12.1289 12.7625L11.7926 12.6395L11.448 12.5355L11.098 12.4508L10.7453 12.3879L10.3898 12.3441L10.0344 12.3195L9.67344 12.3168L9.31523 12.3359L8.95977 12.3742L8.60703 12.4316L8.71094 12.1227L8.7957 11.8109L8.8668 11.4938L8.92148 11.1738L8.95977 10.8512L8.98164 10.5285L8.98711 10.2031H10.8V8.80313H8.81211L8.77383 8.64727L8.72734 8.43672L8.70547 8.22617L8.70273 8.01289L8.72461 7.80234L8.76562 7.59453L8.82578 7.38945L8.90781 7.19258L9.00898 7.00664L9.1293 6.83164L9.26602 6.66758L9.41914 6.51992L9.58867 6.38867L9.76641 6.27383L9.95781 6.18086L10.1574 6.1043L10.3625 6.04961L10.5703 6.01406L10.7836 6.00312L10.9969 6.01133L11.2074 6.04141L11.4125 6.09336L11.6148 6.16719L11.8062 6.25742L11.9867 6.36953L12.1562 6.49805L12.3121 6.64297L12.4516 6.8043L12.5746 6.97656L12.6785 7.1625L12.7633 7.35664L12.8289 7.55898L14.1824 7.19805L14.1004 6.93281L13.9965 6.67578L13.8734 6.42695L13.7312 6.1918L13.5727 5.96484L13.3949 5.7543L13.2035 5.55742L12.993 5.37422L12.7715 5.21016L12.5363 5.0625L12.293 4.93672L12.0387 4.82734L11.7734 4.74258L11.5055 4.67422L11.2348 4.63047L10.9586 4.60586H10.6824ZM20.3922 7.425C20.4851 7.88477 20.5369 8.35692 20.5672 8.83594C24.5068 9.1747 27.6 12.473 27.6 16.5004C27.6 20.753 24.1526 24.2004 19.9 24.2004C16.758 24.2004 14.0589 22.3157 12.8617 19.6176C12.4068 19.7423 11.9414 19.8395 11.4645 19.902C12.8125 23.241 16.078 25.6004 19.9 25.6004C24.9258 25.6004 29 21.5262 29 16.5004C29 11.6409 25.1875 7.68239 20.3922 7.425ZM20.4824 11.6059L20.3867 11.6113C20.2807 12.1268 20.1254 12.6245 19.9465 13.1098L19.9574 13.1043L20.1625 13.0496L20.3703 13.0141L20.5836 13.0031L20.7969 13.0113L21.0074 13.0414L21.2125 13.0934L21.4148 13.1672L21.6062 13.2574L21.7867 13.3695L21.9562 13.498L22.1121 13.643L22.2516 13.8043L22.3746 13.9766L22.4785 14.1625L22.5633 14.3566L22.6289 14.559L23.9824 14.198L23.9004 13.9328L23.7965 13.6758L23.6734 13.427L23.5312 13.1918L23.3727 12.9648L23.1949 12.7543L23.0035 12.5574L22.793 12.3742L22.5715 12.2102L22.3363 12.0625L22.093 11.9367L21.8387 11.8273L21.5734 11.7426L21.3055 11.6742L21.0348 11.6305L20.7586 11.6059H20.4824ZM18.5766 15.6637C18.1701 16.2205 17.7121 16.7363 17.2066 17.2031H17.3844L17.3789 17.534L17.3516 17.8621L17.3023 18.1875L17.2285 18.5102L17.1355 18.8273L17.0207 19.1363L16.8867 19.4371L16.7309 19.727L16.5559 20.0059L16.3617 20.2738L17.2504 21.3184L17.543 21.1707L17.8465 21.0422L18.1555 20.9355L18.4699 20.848L18.7926 20.7852L19.1152 20.7414L19.4406 20.7195H19.7687L20.0969 20.7414L20.4195 20.7852L20.7422 20.8508L21.0566 20.9383L21.3656 21.0449L21.6664 21.1734L21.8824 21.2609L22.1039 21.3293L22.3309 21.3758L22.5633 21.3977L22.7957 21.4004L23.0281 21.3813L23.2551 21.3375L23.4793 21.2746L23.6953 21.1898L23.9031 21.0859L24.1 20.9629L23.2988 19.8145L23.1812 19.8828L23.0555 19.9402L22.9242 19.9785L22.7902 19.9977L22.6535 20.0004L22.5168 19.9867L22.3855 19.9539L22.257 19.9047L21.9289 19.7625L21.5926 19.6395L21.248 19.5355L20.898 19.4508L20.5453 19.3879L20.1898 19.3441L19.8344 19.3195L19.4734 19.3168L19.1152 19.3359L18.7598 19.3742L18.407 19.4316L18.5109 19.1227L18.5957 18.8109L18.6668 18.4937L18.7215 18.1738L18.7598 17.8512L18.7816 17.5285L18.7871 17.2031H20.6V15.8031H18.6121L18.5766 15.6637Z" fill="#885ABB" stroke="#885ABB" stroke-width="0.5"/>
</svg>
