<svg width="26" height="22" viewBox="0 0 26 22" fill="none" xmlns="http://www.w3.org/2000/svg">
<path fill-rule="evenodd" clip-rule="evenodd" d="M0 2.01364L1.06247 0.951172H24.4368L25.4992 2.01364V10.5134H23.3743V8.38844H2.12493V16.8882H10.6247V19.0131H1.06247L0 17.9506V2.01364ZM2.12493 6.26351H23.3743V3.07611H2.12493V6.26351Z" fill="#885ABB"/>
<path fill-rule="evenodd" clip-rule="evenodd" d="M22.2761 19.0132C22.2881 19.0133 22.3002 19.0135 22.3122 19.0135C24.0725 19.0135 25.4996 17.5864 25.4996 15.8261C25.4996 14.0658 24.0725 12.6387 22.3122 12.6387C21.7393 12.6387 21.197 12.8826 20.7978 13.1073C20.3702 13.3481 19.9558 13.6552 19.6062 13.9408C19.4336 14.0818 19.2714 14.2222 19.1248 14.3535C18.9782 14.2222 18.816 14.0818 18.6434 13.9408C18.2938 13.6552 17.8795 13.3481 17.4518 13.1073C17.0526 12.8826 16.5103 12.6387 15.9374 12.6387C14.1771 12.6387 12.75 14.0658 12.75 15.8261C12.75 17.5864 14.1771 19.0135 15.9374 19.0135C15.9494 19.0135 15.9615 19.0133 15.9735 19.0132L15.0264 20.5917L16.8484 21.6851L19.1248 17.8911L21.4012 21.6851L23.2232 20.5917L22.2761 19.0132ZM17.5824 15.8261C17.4923 15.7473 17.3972 15.6667 17.2989 15.5864C16.9985 15.3407 16.6893 15.1166 16.4093 14.959C16.2704 14.8808 16.1543 14.8279 16.0629 14.7962C15.9758 14.7659 15.9364 14.7637 15.9366 14.7636C15.3498 14.7636 14.8749 15.2393 14.8749 15.8261C14.8749 16.4128 15.3506 16.8885 15.9374 16.8885C15.9373 16.8884 15.9758 16.8863 16.0629 16.856C16.1543 16.8242 16.2704 16.7714 16.4093 16.6932C16.6893 16.5355 16.9985 16.3114 17.2989 16.0658C17.3972 15.9854 17.4923 15.9048 17.5824 15.8261ZM20.6672 15.8261C20.7573 15.9048 20.8524 15.9854 20.9507 16.0658C21.2512 16.3114 21.5603 16.5355 21.8403 16.6932C21.9792 16.7714 22.0953 16.8242 22.1867 16.856C22.2738 16.8863 22.3132 16.8884 22.3132 16.8885C22.3131 16.8885 22.3138 16.8885 22.3132 16.8885C22.9 16.8885 23.3747 16.4128 23.3747 15.8261C23.3747 15.2393 22.899 14.7636 22.3122 14.7636C22.3121 14.7636 22.3128 14.7636 22.3122 14.7636C22.3122 14.7637 22.2738 14.7659 22.1867 14.7962C22.0953 14.8279 21.9792 14.8808 21.8403 14.959C21.5603 15.1166 21.2512 15.3407 20.9507 15.5864C20.8524 15.6667 20.7573 15.7473 20.6672 15.8261Z" fill="#885ABB"/>
</svg>
