<svg width="22" height="22" viewBox="0 0 22 22" fill="none" xmlns="http://www.w3.org/2000/svg">
<path d="M10.7715 21.5C4.84148 21.5 0.0214844 16.68 0.0214844 10.75C0.0214844 4.82 4.84148 0 10.7715 0C16.7015 0 21.5215 4.82 21.5215 10.75C21.5215 16.68 16.7015 21.5 10.7715 21.5ZM10.7715 1.5C5.67148 1.5 1.52148 5.65 1.52148 10.75C1.52148 15.85 5.67148 20 10.7715 20C15.8715 20 20.0215 15.85 20.0215 10.75C20.0215 5.65 15.8715 1.5 10.7715 1.5Z" fill="#29BF6A"/>
<path d="M9.35099 14.3296C9.15099 14.3296 8.96099 14.2496 8.82099 14.1096L5.99094 11.2796C5.70094 10.9896 5.70094 10.5096 5.99094 10.2196C6.28094 9.92961 6.76094 9.92961 7.05094 10.2196L9.35099 12.5196L14.491 7.37961C14.781 7.08961 15.261 7.08961 15.551 7.37961C15.841 7.66961 15.841 8.14961 15.551 8.43961L9.88099 14.1096C9.74099 14.2496 9.55099 14.3296 9.35099 14.3296Z" fill="#29BF6A"/>
</svg>
