<svg width="28" height="20" viewBox="0 0 28 20" fill="none" xmlns="http://www.w3.org/2000/svg">
<path d="M24.0523 0.226562C26.0942 0.226562 27.7638 1.82053 27.8847 3.83204L27.8917 4.06592V15.9401C27.8917 17.982 26.2977 19.6516 24.2862 19.7725L24.0523 19.7795H3.83936C1.79747 19.7795 0.12788 18.1855 0.00700712 16.174L0 15.9401V4.06592C0 2.02404 1.59397 0.354442 3.60548 0.23357L3.83936 0.226562H24.0523ZM25.7963 8.56705H2.0928L2.0942 15.9401C2.0942 16.8437 2.78092 17.5869 3.66093 17.6763L3.83936 17.6853H24.0523C24.9559 17.6853 25.6991 16.9986 25.7885 16.1186L25.7975 15.9401L25.7963 8.56705ZM22.6758 13.4609C23.2541 13.4609 23.7229 13.9297 23.7229 14.508C23.7229 15.0381 23.3289 15.4762 22.8178 15.5455L22.6758 15.5551H19.1854C18.6071 15.5551 18.1383 15.0863 18.1383 14.508C18.1383 13.9779 18.5323 13.5398 19.0433 13.4705L19.1854 13.4609H22.6758ZM24.0523 2.32076H3.83936C2.93577 2.32076 2.19258 3.00748 2.10321 3.88749L2.0942 4.06592L2.0928 6.47285H25.7963L25.7975 4.06592C25.7975 3.16233 25.1108 2.41914 24.2307 2.32977L24.0523 2.32076Z" fill="#885ABB"/>
</svg>
