<svg width="21" height="22" viewBox="0 0 21 22" fill="none" xmlns="http://www.w3.org/2000/svg">
<path fill-rule="evenodd" clip-rule="evenodd" d="M0 0.529297H6.73117V7.26046H0V0.529297ZM2.24372 2.77302V5.01674H4.48744V2.77302H2.24372Z" fill="#885ABB"/>
<path fill-rule="evenodd" clip-rule="evenodd" d="M14.21 0.529297H20.9411V7.26046H14.21V0.529297ZM16.4537 2.77302V5.01674H18.6974V2.77302H16.4537Z" fill="#885ABB"/>
<path fill-rule="evenodd" clip-rule="evenodd" d="M0 14.7402H6.73117V21.4714H0V14.7402ZM2.24372 16.984V19.2277H4.48744V16.984H2.24372Z" fill="#885ABB"/>
<rect y="9.87891" width="2.24372" height="2.24372" fill="#885ABB"/>
<rect x="4.4873" y="9.87891" width="2.24372" height="2.24372" fill="#885ABB"/>
<rect x="9.22461" y="9.87891" width="2.24372" height="2.24372" fill="#885ABB"/>
<rect x="9.22461" y="14.5527" width="2.24372" height="2.24372" fill="#885ABB"/>
<rect x="9.22461" y="19.2266" width="2.24372" height="2.24372" fill="#885ABB"/>
<rect x="9.22461" y="5.20312" width="2.24372" height="2.24372" fill="#885ABB"/>
<rect x="9.22461" y="0.529297" width="2.24372" height="2.24372" fill="#885ABB"/>
<rect x="13.9609" y="9.87891" width="2.24372" height="2.24372" fill="#885ABB"/>
<rect x="18.6973" y="9.87891" width="2.24372" height="2.24372" fill="#885ABB"/>
<rect x="13.9609" y="14.5527" width="2.24372" height="2.24372" fill="#885ABB"/>
<rect x="18.6973" y="14.5527" width="2.24372" height="2.24372" fill="#885ABB"/>
<rect x="13.9609" y="19.2266" width="2.24372" height="2.24372" fill="#885ABB"/>
<rect x="18.6973" y="19.2266" width="2.24372" height="2.24372" fill="#885ABB"/>
</svg>
