<svg width="31" height="31" viewBox="0 0 31 31" fill="none" xmlns="http://www.w3.org/2000/svg">
<path d="M1.43039 14.8206L1.42272 16.2342L4.25003 16.2499L4.2577 14.8362L1.43039 14.8206ZM5.67135 14.8439L5.66369 16.2575L8.49085 16.2727L8.49821 14.8588L5.67135 14.8439ZM9.91187 14.8664L9.90435 16.2799L12.7314 16.2953L12.739 14.8816L9.91187 14.8664Z" fill="#885ABB"/>
<path d="M8.37085 10.25C8.24614 10.3133 8.13276 10.3968 8.03528 10.4971C7.96186 10.5732 7.89942 10.6591 7.84976 10.7524L16.3902 15.2959L8.18502 20.4202C8.6389 21.1468 10.1235 21.5207 11.1409 20.8855L18.2562 16.4291L20.451 17.457C19.8375 17.9824 19.8569 19.0103 20.1741 19.6433C20.4659 20.2039 20.9631 20.6893 21.6035 21.03C22.2437 21.3707 22.9238 21.5117 23.5518 21.4406C24.1799 21.3693 24.7933 21.0569 25.1045 20.4721C26.3656 17.6857 21.6769 15.9728 20.0568 15.1899C21.7985 13.9617 26.2431 11.9551 24.7248 9.52878C24.3737 8.96696 23.7405 8.69815 23.1089 8.67064C22.4775 8.64328 21.8091 8.8309 21.1942 9.21517C20.579 9.59914 20.0866 10.0482 19.864 10.6972C19.6414 11.3461 19.5813 12.3059 20.1807 12.7543C20.2162 12.791 20.2538 12.8253 20.2917 12.8593L18.1944 14.0566L10.788 10.1032C10.0353 9.70288 8.92214 9.96627 8.37085 10.25ZM21.8489 10.2641C22.2693 10.0016 22.7173 9.89185 23.0555 9.90659C23.3937 9.92147 23.5829 10.035 23.676 10.1843C23.7691 10.3333 23.7878 10.5523 23.6527 10.8628C23.5175 11.1729 23.2224 11.5276 22.8019 11.7899C22.3814 12.0526 21.9331 12.1617 21.595 12.1468C21.2569 12.1322 21.0676 12.0199 20.9745 11.8706C20.8815 11.7217 20.8631 11.5022 20.9983 11.192C21.0659 11.0369 21.1728 10.8701 21.3161 10.71C21.4719 10.5371 21.6512 10.387 21.8489 10.2641ZM21.3704 18.2143C21.4714 18.1478 21.6115 18.0988 21.8008 18.0773C22.1371 18.0393 22.5914 18.1166 23.0291 18.3494C23.4666 18.5825 23.7856 18.9159 23.9422 19.2163C24.0983 19.5164 24.095 19.7359 24.0123 19.891C23.9298 20.0463 23.7488 20.1726 23.4124 20.2106C23.0761 20.2487 22.6218 20.1705 22.1843 19.9378C21.7468 19.7048 21.4278 19.3713 21.2711 19.0709C21.1151 18.7708 21.1182 18.5509 21.2008 18.3956C21.2215 18.3568 21.2483 18.3198 21.2821 18.2857C21.3075 18.26 21.3367 18.2365 21.3704 18.2143Z" fill="#885ABB"/>
</svg>
